<?xml version='1.0' encoding='UTF-8'?>
<svg x="0px" y="0px" viewBox="0 0 32 32" version="1.1" xmlns="http://www.w3.org/2000/svg" xmlns:xlink="http://www.w3.org/1999/xlink" xml:space="preserve" id="A_Date_Occuring" style="enable-background:new 0 0 32 32">
  <style type="text/css">
	.Black{fill:#727272;}
	.Blue{fill:#1177D7;}
	.Red{fill:#D11C1C;}
	.st0{opacity:0.5;}
</style>
  <path d="M28,8v18H4V8H2v19c0,0.6,0.4,1,1,1h26c0.6,0,1-0.4,1-1V8H28z" class="Black" />
  <path d="M30,3v5H2V3c0-0.6,0.4-1,1-1h26C29.6,2,30,2.4,30,3z M12,18H8v4h4V18z" class="Red" />
  <g class="st0">
    <rect x="8" y="12" width="4" height="4" rx="0" ry="0" class="Black" />
    <rect x="14" y="12" width="4" height="4" rx="0" ry="0" class="Black" />
    <rect x="20" y="12" width="4" height="4" rx="0" ry="0" class="Black" />
    <rect x="14" y="18" width="4" height="4" rx="0" ry="0" class="Black" />
    <rect x="20" y="18" width="4" height="4" rx="0" ry="0" class="Black" />
  </g>
</svg>